# xmcd
#
# Track frame offsets: 
#        150
#        10805
#        22636
#        36127
#        49772
#        62106
#        74540
#        85729
#        95847
#        106959
#        120008
#        131539
#        143758
#        154116
#        166768
#        178965
#
# Disc length: 2530 seconds
#
# Revision: 0
# Processed by: cddbd v1.5.2PL0 Copyright (c) Steve Scherf et al.
# Submitted via: ExactAudioCopy v0.95b4
#
DISCID=c809e010
DTITLE=Various Artist - Hillbilly Boogie Disc 1
DYEAR=2006
DGENRE=Boogie
TTITLE0=Hardrock Gunter and The Rhythm Rockers - Gonna Dance All Night
TTITLE1=Al Dexter and His Troopers - New Broom Boogie
TTITLE2=Arthur Smith's Sensational Trio - Country Boogie
TTITLE3=Merle Travis - Merle's Boogie Woogie
TTITLE4=The Delmore Brothers - Hillbilly Boogie
TTITLE5=Zeke Clements and His Western Swing Band - Brown's Ferry Boogie
TTITLE6=Bill Haley and The Saddlemen - Sundown Boogie
TTITLE7=Cliffie Stone and His Hometown Jamboree Gang - Dirty Dishes
TTITLE8=Jim Boyd and His Men of the West - Waxahachie Diswasher Boy
TTITLE9=Louis Innis and The String Dusters - Better Back Up Mama
TTITLE10=Moon Mullican - Grandpa Stole My Baby
TTITLE11=Leon McAuliffe and His Western Swing - Take It Away, Leon
TTITLE12=Little Jimmy dickens - Salty Boogie
TTITLE13=Johnny Bond and His Red River Valley Boys - Smoke! Smoke! Smoke
TTITLE13=! (That Cigarette)
TTITLE14=Maddox Brothers and Rose - George's Playhouse Boogie
TTITLE15=Lee Bell - Beating Out the Boogie (On the Mississippi Mud)
EXTD=
EXTT0=
EXTT1=
EXTT2=
EXTT3=
EXTT4=
EXTT5=
EXTT6=
EXTT7=
EXTT8=
EXTT9=
EXTT10=
EXTT11=
EXTT12=
EXTT13=
EXTT14=
EXTT15=
PLAYORDER=
